<?xml version="1.0" encoding="utf-8"?>
<!-- Generator: Adobe Illustrator 25.0.1, SVG Export Plug-In . SVG Version: 6.00 Build 0)  -->
<svg version="1.1" id="Layer_1" xmlns="http://www.w3.org/2000/svg" xmlns:xlink="http://www.w3.org/1999/xlink" x="0px" y="0px"
	 viewBox="0 0 484 475" style="enable-background:new 0 0 484 475;" xml:space="preserve">
<style type="text/css">
	.st0{fill:#C51C2D;}
	.st1{fill:#FFFFFF;}
</style>
<g>
	<g>
		<path class="st0" d="M424.8,30H77.9c-16.6,0-30,13.1-30,29.3v348.3c0,16.2,13.5,29.4,30,29.4h346.9c16.6,0,30.1-13.2,30.1-29.4
			V59.3C454.9,43.1,441.4,30,424.8,30z"/>
		<path class="st1" d="M108.2,182.6h60.4v194.2h-60.4V182.6z M138.4,86c19.3,0,35,15.7,35,35c0,19.3-15.7,35-35,35
			c-19.4,0-35-15.7-35-35C103.4,101.7,119.1,86,138.4,86"/>
		<path class="st1" d="M206.5,182.6h57.9v26.6h0.8c8-15.3,27.7-31.4,57.1-31.4c61.1,0,72.4,40.2,72.4,92.5v106.5h-60.4v-94.5
			c0-22.5-0.4-51.5-31.4-51.5c-31.4,0-36.2,24.5-36.2,49.9v96.1h-60.3V182.6z"/>
	</g>
</g>
</svg>
