<?xml version="1.0" encoding="utf-8"?>
<!-- Generator: Adobe Illustrator 25.0.1, SVG Export Plug-In . SVG Version: 6.00 Build 0)  -->
<svg version="1.1" id="Layer_1" xmlns="http://www.w3.org/2000/svg" xmlns:xlink="http://www.w3.org/1999/xlink" x="0px" y="0px"
	 viewBox="0 0 407 407" style="enable-background:new 0 0 407 407;" xml:space="preserve">
<style type="text/css">
	.st0{fill:#FFFFFF;}
	.st1{fill:#0064A0;}
</style>
<path class="st0" d="M376.9,0H30C13.5,0,0,13.1,0,29.3v348.3C0,393.8,13.5,407,30,407h346.9c16.6,0,30.1-13.2,30.1-29.4V29.3
	C407,13.1,393.5,0,376.9,0z"/>
<path class="st1" d="M60.3,152.6h60.4v194.2H60.3V152.6z M90.5,56c19.3,0,35,15.7,35,35c0,19.3-15.7,35-35,35c-19.4,0-35-15.7-35-35
	C55.5,71.7,71.1,56,90.5,56"/>
<path class="st1" d="M158.6,152.6h57.9v26.6h0.8c8-15.3,27.7-31.4,57.1-31.4c61.1,0,72.4,40.2,72.4,92.5v106.5h-60.4v-94.5
	c0-22.5-0.4-51.5-31.4-51.5c-31.4,0-36.2,24.5-36.2,49.9v96.1h-60.3V152.6z"/>
</svg>
